<svg fill='#fff' width="0" height="0" class="hidden">
   <symbol xmlns="http://www.w3.org/2000/svg" viewBox="0 0 24 24" id="chevron">
    <path d="M0 7.33l2.829-2.83 9.175 9.339 9.167-9.339 2.829 2.83-11.996 12.17z"></path>
  </symbol>
    <symbol xmlns="http://www.w3.org/2000/svg" viewBox="0 0 24 24" id="close">
    <path d="M24 20.188l-8.315-8.209 8.2-8.282-3.697-3.697-8.212 8.318-8.31-8.203-3.666 3.666 8.321 8.24-8.206 8.313 3.666 3.666 8.237-8.318 8.285 8.203z"></path>
  </symbol>
   <symbol xmlns="http://www.w3.org/2000/svg" viewBox="0 0 24 24" id="night">
    <path d="M10.719 2.082c-2.572 2.028-4.719 5.212-4.719 9.918 0 4.569 1.938 7.798 4.548 9.895-4.829-.705-8.548-4.874-8.548-9.895 0-5.08 3.808-9.288 8.719-9.918zm1.281-2.082c-6.617 0-12 5.383-12 12s5.383 12 12 12c1.894 0 3.87-.333 5.37-1.179-3.453-.613-9.37-3.367-9.37-10.821 0-7.555 6.422-10.317 9.37-10.821-1.74-.682-3.476-1.179-5.37-1.179zm0 10.999c1.437.438 2.562 1.564 2.999 3.001.44-1.437 1.565-2.562 3.001-3-1.436-.439-2.561-1.563-3.001-3-.437 1.436-1.562 2.561-2.999 2.999zm8.001.001c.958.293 1.707 1.042 2 2.001.291-.959 1.042-1.709 1.999-2.001-.957-.292-1.707-1.042-2-2-.293.958-1.042 1.708-1.999 2zm-1-9c-.437 1.437-1.563 2.562-2.998 3.001 1.438.44 2.561 1.564 3.001 3.002.437-1.438 1.563-2.563 2.996-3.002-1.433-.437-2.559-1.564-2.999-3.001z"></path>
  </symbol>
  <symbol xmlns="http://www.w3.org/2000/svg" viewBox="0 0 24 24" id="day">
    <path d="M4.069 13h-4.069v-2h4.069c-.041.328-.069.661-.069 1s.028.672.069 1zm3.034-7.312l-2.881-2.881-1.414 1.414 2.881 2.881c.411-.529.885-1.003 1.414-1.414zm11.209 1.414l2.881-2.881-1.414-1.414-2.881 2.881c.528.411 1.002.886 1.414 1.414zm-6.312-3.102c.339 0 .672.028 1 .069v-4.069h-2v4.069c.328-.041.661-.069 1-.069zm0 16c-.339 0-.672-.028-1-.069v4.069h2v-4.069c-.328.041-.661.069-1 .069zm7.931-9c.041.328.069.661.069 1s-.028.672-.069 1h4.069v-2h-4.069zm-3.033 7.312l2.88 2.88 1.415-1.414-2.88-2.88c-.412.528-.886 1.002-1.415 1.414zm-11.21-1.415l-2.88 2.88 1.414 1.414 2.88-2.88c-.528-.411-1.003-.885-1.414-1.414zm2.312-4.897c0 2.206 1.794 4 4 4s4-1.794 4-4-1.794-4-4-4-4 1.794-4 4zm10 0c0 3.314-2.686 6-6 6s-6-2.686-6-6 2.686-6 6-6 6 2.686 6 6z"></path>
  </symbol>
   <symbol clip-rule="evenodd" fill="" fill-rule="evenodd" stroke-linejoin="round" stroke-miterlimit="2" xmlns="http://www.w3.org/2000/svg" viewBox="0 0 24 24" id="trash">
    <path d="m4.015 5.494h-.253c-.413 0-.747-.335-.747-.747s.334-.747.747-.747h5.253v-1c0-.535.474-1 1-1h4c.526 0 1 .465 1 1v1h5.254c.412 0 .746.335.746.747s-.334.747-.746.747h-.254v15.435c0 .591-.448 1.071-1 1.071-2.873 0-11.127 0-14 0-.552 0-1-.48-1-1.071zm14.5 0h-13v15.006h13zm-4.25 2.506c-.414 0-.75.336-.75.75v8.5c0 .414.336.75.75.75s.75-.336.75-.75v-8.5c0-.414-.336-.75-.75-.75zm-4.5 0c-.414 0-.75.336-.75.75v8.5c0 .414.336.75.75.75s.75-.336.75-.75v-8.5c0-.414-.336-.75-.75-.75zm3.75-4v-.5h-3v.5z" fill-rule="nonzero"></path>
  </symbol>
  <symbol xmlns="http://www.w3.org/2000/svg" viewBox="0 0 24 24" id="workers">
    <path d="M17.997 18h-.998c0-1.552.06-1.775-.88-1.993-1.438-.332-2.797-.645-3.293-1.729-.18-.396-.301-1.048.155-1.907 1.021-1.929 1.277-3.583.702-4.538-.672-1.115-2.707-1.12-3.385.017-.576.968-.316 2.613.713 4.512.465.856.348 1.51.168 1.908-.49 1.089-1.836 1.4-3.262 1.728-.982.227-.92.435-.92 2.002h-.995l-.002-.623c0-1.259.1-1.985 1.588-2.329 1.682-.389 3.344-.736 2.545-2.209-2.366-4.365-.676-6.839 1.865-6.839 2.492 0 4.227 2.383 1.867 6.839-.775 1.464.824 1.812 2.545 2.209 1.49.344 1.589 1.072 1.589 2.333l-.002.619zm4.81-2.214c-1.289-.298-2.489-.559-1.908-1.657 1.77-3.342.47-5.129-1.4-5.129-1.265 0-2.248.817-2.248 2.325 0 1.269.574 2.175.904 2.925h1.048c-.17-.75-1.466-2.562-.766-3.736.412-.692 1.704-.693 2.114-.012.38.631.181 1.812-.534 3.161-.388.733-.28 1.301-.121 1.648.305.666.977.987 1.737 1.208 1.507.441 1.368.042 1.368 1.48h.997l.002-.463c0-.945-.074-1.492-1.193-1.75zm-22.805 2.214h.997c0-1.438-.139-1.039 1.368-1.48.761-.221 1.433-.542 1.737-1.208.159-.348.267-.915-.121-1.648-.715-1.349-.914-2.53-.534-3.161.41-.682 1.702-.681 2.114.012.7 1.175-.596 2.986-.766 3.736h1.048c.33-.75.904-1.656.904-2.925.001-1.509-.982-2.326-2.247-2.326-1.87 0-3.17 1.787-1.4 5.129.581 1.099-.619 1.359-1.908 1.657-1.12.258-1.194.805-1.194 1.751l.002.463z"></path>
  </symbol>
  <symbol clip-rule="evenodd" fill-rule="evenodd" stroke-linejoin="round" stroke-miterlimit="2" xmlns="http://www.w3.org/2000/svg" viewBox="0 0 24 24" id="add-worker">
    <path d="m20 20h-15.25c-.414 0-.75.336-.75.75s.336.75.75.75h15.75c.53 0 1-.47 1-1v-15.75c0-.414-.336-.75-.75-.75s-.75.336-.75.75zm-1-17c0-.478-.379-1-1-1h-15c-.62 0-1 .519-1 1v15c0 .621.52 1 1 1h15c.478 0 1-.379 1-1zm-15.5.5h14v14h-14zm6.25 6.25h-3c-.414 0-.75.336-.75.75s.336.75.75.75h3v3c0 .414.336.75.75.75s.75-.336.75-.75v-3h3c.414 0 .75-.336.75-.75s-.336-.75-.75-.75h-3v-3c0-.414-.336-.75-.75-.75s-.75.336-.75.75z" fill-rule="nonzero"></path>
  </symbol>
   <symbol xmlns="http://www.w3.org/2000/svg" version="1.1" viewBox="0.00 0.00 512.00 512.00" id="mid">
    <path fill="#000000" d="
  M 479.99 255.99
  A 223.99 223.99 0.0 0 1 256.00 479.98
  A 223.99 223.99 0.0 0 1 32.01 255.99
  A 223.99 223.99 0.0 0 1 256.00 32.00
  A 223.99 223.99 0.0 0 1 479.99 255.99
  Z
  M 458.65 255.99
  A 202.65 202.65 0.0 0 0 256.00 53.34
  A 202.65 202.65 0.0 0 0 53.35 255.99
  A 202.65 202.65 0.0 0 0 256.00 458.64
  A 202.65 202.65 0.0 0 0 458.65 255.99
  Z"></path>
    <rect fill="#000000" x="245.31" y="106.72" width="21.38" height="149.28" rx="0.60"></rect>
  </symbol>
</svg>